<?xml version="1.0" encoding="utf-8"?>
<svg version="1.1" id="Layer_1" xmlns="http://www.w3.org/2000/svg" xmlns:xlink="http://www.w3.org/1999/xlink" x="0px" y="0px"
	 viewBox="0 0 360.4 94.7" style="enable-background:new 0 0 360.4 94.7;" xml:space="preserve">
<style type="text/css">
	.st0{fill:#333232;}
	.st1{fill:#09BAB5;}
</style>
<g>
	<g>
		<path class="st0" d="M72.5,47.6c0-11.6,9.1-21.3,20.9-21.3c11.7,0,20.9,9.7,20.9,21.3c0,11.6-9.2,21.2-20.9,21.2
			C81.6,68.8,72.5,59.2,72.5,47.6z M106.9,47.6c0-7.9-5.8-14.5-13.7-14.5c-7.8,0-13.5,6.6-13.5,14.5c0,7.9,5.7,14.4,13.5,14.4
			C101.2,62,106.9,55.4,106.9,47.6z"/>
		<path class="st0" d="M144.8,52.4v15.6h-6.9V52.9c0-4.5-2.7-6.9-5.8-6.9c-3.2,0-7.1,1.8-7.1,7.2v14.8h-6.9V40.2h6.9v4.4
			c1.4-3.5,5.8-5.1,8.6-5.1C140.8,39.5,144.8,44.3,144.8,52.4z"/>
		<path class="st0" d="M176.4,56.6h-21.6c0.8,3.9,3.8,6,7.9,6c3,0,5.9-1.3,7.5-3.6l4.6,3.5c-2.6,4.1-7.5,6.3-12.6,6.3
			c-8.3,0-14.6-6-14.6-14.7c0-8.9,6.6-14.6,14.6-14.6c7.9,0,14.2,5.7,14.2,14.4C176.5,54.6,176.4,55.5,176.4,56.6z M169.6,51.7
			c-0.4-3.8-3.4-6.1-7.3-6.1c-3.7,0-6.7,1.8-7.6,6.1H169.6z"/>
		<path class="st0" d="M191.4,56.2h7.2c0.1,3.2,3.1,6.1,7.6,6.1c4.2,0,6.9-2.6,6.9-5.8c0-2.9-2.4-4.5-5.9-5.5l-5.1-1.4
			c-8.8-2.3-10.4-7.6-10.4-11.1c0-7.3,6.4-12.2,13.9-12.2c7.5,0,13.4,4.7,13.4,12.3h-7.2c0-3.4-2.6-5.8-6.4-5.8
			c-3.5,0-6.4,2.4-6.4,5.6c0,1.1,0.4,3.5,5.1,4.8l4.9,1.4c6.4,1.8,11.4,5.1,11.4,11.7c0,7.5-6.3,12.5-14.3,12.5
			C197.3,68.8,191.4,63.2,191.4,56.2z"/>
		<path class="st0" d="M222.3,54.1c0-8.8,7.1-14.6,15.1-14.6c4.8,0,8.8,2.1,11.3,5.4l-4.9,3.9c-1.4-1.7-3.8-2.8-6.3-2.8
			c-4.8,0-8.3,3.5-8.3,8.2c0,4.7,3.5,8.2,8.3,8.2c2.5,0,4.9-1.1,6.3-2.8l4.9,3.9c-2.6,3.2-6.5,5.4-11.3,5.4
			C229.4,68.8,222.3,62.9,222.3,54.1z"/>
		<path class="st0" d="M277.7,52.4v15.6h-6.9V52.9c0-4.5-2.7-6.9-5.8-6.9c-3.2,0-7.1,1.8-7.1,7.3v14.7H251v-43h6.9v19.4
			c1.4-3.4,5.8-4.9,8.6-4.9C273.7,39.5,277.7,44.3,277.7,52.4z"/>
		<path class="st0" d="M280.5,54.1c0-8.8,6.9-14.6,14.8-14.6c7.9,0,14.8,5.8,14.8,14.6c0,8.8-6.9,14.7-14.8,14.7
			C287.4,68.8,280.5,62.9,280.5,54.1z M303.2,54.1c0-4.8-3.6-8.2-7.9-8.2c-4.3,0-7.8,3.4-7.8,8.2c0,4.9,3.5,8.2,7.8,8.2
			C299.6,62.3,303.2,59,303.2,54.1z"/>
		<path class="st0" d="M311.7,54.1c0-8.8,6.9-14.6,14.8-14.6c7.9,0,14.8,5.8,14.8,14.6c0,8.8-6.9,14.7-14.8,14.7
			C318.6,68.8,311.7,62.9,311.7,54.1z M334.4,54.1c0-4.8-3.6-8.2-7.9-8.2c-4.3,0-7.8,3.4-7.8,8.2c0,4.9,3.5,8.2,7.8,8.2
			C330.8,62.3,334.4,59,334.4,54.1z"/>
		<path class="st0" d="M344.6,68.1v-43h6.9v43H344.6z"/>
	</g>
	<g>
		<path class="st1" d="M37.6,9.5h-8.8c-4.1,0-7.9,1.3-11.1,3.4c-0.5,0.3-0.5,1-0.1,1.4l3.5,3.5c1.5,1.5,3.6,2,5.6,1.6
			c0.7-0.1,1.4-0.2,2.1-0.2h8.8c5.7,0,10.2,4.6,10.2,10.2v36c0,5.7-4.6,10.2-10.2,10.2h-8.8c-5.7,0-10.2-4.6-10.2-10.2v-36
			c0-0.7,0.1-1.4,0.2-2.1c0.4-1.7-0.2-3.5-1.5-4.8l-3.8-3.8c-0.4-0.4-1.1-0.4-1.5,0.2c-1.9,3.1-3.1,6.7-3.1,10.6v36
			c0,11,8.9,19.9,19.9,19.9h8.8c11,0,19.9-8.9,19.9-19.9v-36C57.4,18.4,48.5,9.5,37.6,9.5z"/>
	</g>
</g>
</svg>
